<?xml version="1.0" encoding="utf-8"?>
<!-- Generator: Adobe Illustrator 27.5.0, SVG Export Plug-In . SVG Version: 6.00 Build 0)  -->
<svg version="1.1" id="Lager_1" xmlns="http://www.w3.org/2000/svg" xmlns:xlink="http://www.w3.org/1999/xlink" x="0px" y="0px"
	 viewBox="0 0 2311.6 469" style="enable-background:new 0 0 2311.6 469;" xml:space="preserve">
<style type="text/css">
	.st0{fill:#282221;}
	.st1{fill:#FAFAFA;}
	.st2{fill:#555358;}
	.st3{fill:#78757B;}
	.st4{fill:#6D6B70;}
	.st5{fill:#35343A;}
	.st6{fill:#F6F5F6;}
	.st7{fill:#625F64;}
	.st8{fill:#8A878C;}
	.st9{fill:#46444A;}
	.st10{fill:#EEEDEE;}
	.st11{fill:#B6B4B8;}
	.st12{fill:#2B2B30;}
	.st13{fill:#C1BFC2;}
	.st14{fill:#A3A0A4;}
	.st15{fill:#231F20;}
	.st16{fill:#FFFFFF;}
	.st17{font-family:'Cochin';}
	.st18{font-size:403.125px;}
	.st19{letter-spacing:-8;}
	.st20{letter-spacing:-12;}
	.st21{letter-spacing:-40;}
</style>
<g>
	<path class="st0" d="M2041.1,70.9c-0.7,3.1-1.8,5.9-4.2,8.2c-2.7,2.6-4.9,5.6-7.5,8.4c-1,1.1-2.4,1.8-3.5,2.8
		c-0.5,0.5-1.1,1.3-1.2,1.9c-0.2,2.6-1.5,4-3.8,5c-1.2,0.6-2.2,2.1-2.9,3.3c-0.2,0.3,1.2,1.5,1.9,2.2c1.7,1.7,3.3,3.5,6.1,3.5
		c0.3,0,0.5,0.8,0.7,1.1c-1.7,1-3.2,1.9-4.7,2.7c-3.3,0.2-5.8-0.8-6.9-4.1c-0.1-0.6-0.1-1.1-0.2-1.7c0.1-0.7,0.2-1.5,0.4-2.2
		c0.4-1.2,0.9-2.3,1.3-3.5c0.1-0.1,0.1-0.3,0.1-0.5c0.3-0.4,0.6-0.8,1-1.2c0.4-0.5,0.8-1.1,1.1-1.6c0.1-0.2,0.1-0.3,0.1-0.5
		c0.5-0.4,1.1-0.8,1.6-1.2c1-1.1,2-2.2,3-3.3c0.1-0.2,0.3-0.4,0.4-0.7c0.2-0.5,0.5-1.1,0.7-1.6c0.1-0.2,0.3-0.4,0.4-0.7
		c0.2-0.4,0.4-0.8,0.6-1.1c1.1-1.2,2.1-2.4,3.2-3.5c0.1,0,0.2-0.1,0.2-0.2c0,0,0.1-0.2,0.1-0.2c0.2,0,0.4-0.1,0.6-0.1
		c0.2,0,0.4,0,0.5,0c0.3-0.2,0.7-0.4,1-0.6c0,0,0,0,0,0c0.4-0.7,0.9-1.4,1.3-2.1c0.1-0.4,0.1-0.7,0.2-1.1c1-1.4,1.9-3.1,3.2-4.2
		C2037.6,72.9,2039.4,72,2041.1,70.9z"/>
	<path class="st0" d="M2084,34.2c-0.2,0.7-0.3,1.9-0.6,2c-4.3,0.9-5.5,5.4-8.9,7.4c-1.9,1.2-3.6,2.6-5.2,4.1
		c-1.3,1.2-2.2,2.9-3.4,4.2c-0.6,0.7-1.5,1.2-2.4,1.6c-2,1-4.2,1.5-5.4,3.9c-0.7,1.5-2.6,2.4-3.9,3.6c-2.6,2.4-5,4.9-7.8,7.1
		c-1.4,1.1-3.3,1.6-5,2.3c0.2-1.1,0.4-2.3,0.6-3.4c0.6-0.7,1.1-1.6,1.8-2.1c0.8-0.6,1.9-0.8,2.8-1.1c0.6-0.2,1.1-0.4,1.7-0.5
		c0.2-0.2,0.4-0.4,0.6-0.6c0.4-0.4,0.7-0.8,1.1-1.1c0.1-0.1,0.3-0.3,0.4-0.4c-0.1-0.1-0.3-0.1-0.4-0.2c0-0.4,0-0.8,0-1.1
		c0.3-0.6,0.5-1.2,0.8-1.8c0.1,0,0.2-0.1,0.2-0.2c0.9-0.4,1.7-0.8,2.6-1.3c1.2-0.6,2.5-1.2,3.7-1.8c0.4-0.2,0.7-0.3,1.1-0.5
		c0.2-0.6,0.5-1.1,0.7-1.7c0,0,0.2,0,0.2,0c0.1-0.2,0.3-0.4,0.4-0.6c1.4-1.1,2.8-2.2,4.3-3.3c0.6-0.4,1.1-0.8,1.7-1.1
		c0,0,0-0.1,0-0.1c0.6-0.4,1.1-0.7,1.7-1.1c0,0,0,0,0,0c1-2.9,3.4-4.3,5.9-5.7c2.2-1.2,4-2.9,6-4.4c0.5-0.2,1.1-0.5,1.6-0.7
		c0.6-0.3,1.2-0.7,1.7-1c0,0,0,0,0,0C2083.3,34.3,2083.7,34.2,2084,34.2z"/>
	<path class="st1" d="M2203.8,170.9c1.3-2.7,0.4-5.6,0.7-8.4c0.2-1.5,1.1-3,1.7-4.5c0.4,0.9,0.8,1.9,1.1,2.8
		c0.2,0.8,0.6,1.8,0.4,2.5c-1.1,3.3-2.4,6.6-0.9,10.1c0.2,0.4,0.1,1.2-0.2,1.6c-2.1,2.9-0.5,4.3,2,5.5c0.6,0.7,1.1,1.4,1.7,2.2
		c0,0.2,0,0.4,0,0.5c-0.9,0.2-1.8,0.4-2.7,0.7c0.2,0.4,0.3,0.7,0.5,1.1c0.5,1.3,1,2.7,1.7,4.6c-0.1,0.1-0.7,0.5-1.3,0.9
		c-1-1.3-1.9-2.5-2.9-3.8c-0.3-2.4-0.6-4.7-1-7.1c-0.2-1.4-0.5-2.8-0.7-4.2C2203.8,173.9,2203.8,172.4,2203.8,170.9z"/>
	<path class="st1" d="M2138.3,9.9c-0.4,0.1-0.7,0.2-1.1,0.3c-1.9,0.3-3.8,0.6-5.7,0.9c1.9-1.1,3.8-2.2,6-3.5c0.8-4,1.1-4,5.9-2.8
		c2.2,0.5,4.7,0.1,7,0.2c1.1,0.1,2.1,0.4,3.2,0.6c0,0.3-0.1,0.6-0.1,0.9c0,0,0.1,0.2,0.1,0.2c-2.8,0.6-5.6,1.1-8.5,1.7
		c-0.8,0-1.5,0.1-2.3,0.1c-0.4,0.1-0.8,0.3-1.1,0.4c-0.4,0.1-0.7,0.1-1.1,0.2C2139.8,9.3,2139.1,9.6,2138.3,9.9z"/>
	<path class="st1" d="M2241.2,119.1c4.5-2.1,9.1-3.3,14-3.6c3,0.3,6,0.5,9,0.8c0.2,0,0.4,0.3,0.7,0.5c-0.4,0.5-0.7,1.4-1.1,1.4
		c-3.1,0-6.3-0.2-9.4-0.2c-1.6,0-3.3,0.4-4.9,0.5C2246.7,118.8,2244,118.9,2241.2,119.1z"/>
	<path class="st1" d="M2079.7,36.1c-2,1.5-3.8,3.3-6,4.4c-2.6,1.4-4.9,2.8-5.9,5.7c-0.7-3.3,1.7-4.8,4.1-6.7c-1.2-0.4-2.1-0.8-3-1.1
		c1.4-1.4,1.4-1.4,5.2-0.3c0.5-1.2,1-2.4,1.4-3.3C2077.2,35.2,2078.4,35.7,2079.7,36.1z"/>
	<path class="st0" d="M2215,245.4c-0.7-0.4-1.9-0.7-1.9-1.1c-0.4-3.6-0.7-7.3-0.7-10.9c0-1.3,1-2.5,1.5-3.8c0.2,1.3,0.4,2.7,0.6,4
		c0.2,1.5,0.4,3,0.6,4.5c0,2.3,0,4.5,0,6.8C2215.2,245.1,2215.1,245.2,2215,245.4z"/>
	<path class="st1" d="M2215.2,238.1c-0.2-1.5-0.4-3-0.6-4.5c-0.2-1.3-0.4-2.7-0.6-4c0-2.6,0-5.3,0-7.9c0.1-0.4,0.2-0.8,0.2-1.1
		c1.9,0.6,2.5,1.5,1.4,3.5c-0.6,1-0.7,2.8-0.2,3.8C2217.2,231.4,2215.4,234.7,2215.2,238.1z"/>
	<path class="st2" d="M2123,12.6c-1,0.1-2.2,0.5-3.1,0.2c-1.6-0.5-2.5-0.1-3.3,1.2c-0.3,0.2-0.7,0.4-1,0.6c-1.4,0.1-3.3-1.5-4,1.1
		c-1.3,0.2-2.6,0.5-3.9,0.7c-0.3,0-0.7,0-1,0c0.2-0.4,0.3-0.7,0.5-1.1c0.2-0.2,0.4-0.4,0.6-0.5c0.7-0.4,1.5-0.8,2.2-1.2
		c0.4-0.2,0.8-0.4,1.1-0.6c1.5,0,3-0.1,4.5-0.1c0.9-0.6,1.9-1.1,2.8-1.7c1.5,0.4,3,0.8,4.5,1.1C2123.2,12.4,2123.2,12.5,2123,12.6z"
		/>
	<path class="st3" d="M2264.9,116.8c-0.2-0.2-0.4-0.5-0.7-0.5c-3-0.3-6-0.5-9-0.8c0.6-0.4,1.1-1,1.7-1c2.9,0.2,5.7,0.7,8.6,0.9
		c2.1,0.1,4.2-0.2,6.3-0.2c0.7,0,1.4,0.5,2.1,0.7c-0.4,0.1-0.8,0.3-1.2,0.4c-1.9,0.2-3.8,0.3-5.7,0.5
		C2266.4,116.9,2265.6,116.9,2264.9,116.8z"/>
	<g>
		<polygon points="2171.7,181.1 2171.7,181.1 2171.7,181.1 		"/>
		<path d="M2305,109.4c-0.4,0.1-1,0.5-1.2,0.4c-2-1.5-2.8-6.5-1.5-8.9c-0.3-0.6-0.6-1.3-0.8-1.9c-0.8-0.2-2.2-0.4-2.2-0.6
			c0-1.1,0.4-2.1,0.7-3.1c-0.1-0.4-0.1-0.7-0.2-1.1c-0.5-0.8-1-1.6-1.5-2.4c-0.2-0.5-0.4-1.1-0.5-1.6c0,0,0,0,0,0
			c-0.4-0.6-0.7-1.1-1.1-1.7c-0.2-0.4-0.4-0.8-0.7-1.2c-2.2,0.6-1.7-1-1.7-2.2c-0.8-0.4-1.5-0.8-2.3-1.2c-2.3-0.7-5.1-0.6-6.4-3.2
			c-0.3-0.5-0.3-1.2-0.4-1.8c-0.2-0.4-0.4-0.7-0.6-1.1c-0.4-0.4-0.8-0.7-1.2-1.1c-0.9-0.4-1.8-0.8-2.6-1.2c-0.2-0.1-0.5-0.3-0.7-0.4
			c-0.8-0.6-1.6-1.1-2.3-1.7c-0.3-0.4-0.7-0.8-1-1.2c-1-0.7-1.9-1.4-2.9-2.1l0,0c-1.2-0.7-2.4-1.5-3.6-2.2c-0.3-0.1-0.6-0.1-0.9-0.2
			c-1.5-0.9-3-1.8-4.5-2.7c0,0,0,0,0,0c-2.8-1.2-5.7-2.3-8.5-3.5c-0.4,0-0.7,0-1.1,0c-1.1-0.3-2.3-0.7-3.4-1c-0.6,0-1.1,0-1.7,0
			c-0.7-0.4-1.5-0.8-2.2-1.3c0-0.2-0.1-0.4-0.1-0.5c-0.7-0.6-1.5-1.2-2.2-1.8c-0.4,0-0.8,0-1.1,0c-2.6-0.4-5.3-0.7-7.9-1.1
			c-0.8,0-1.5-0.1-2.3-0.1c-0.6-0.2-1.1-0.3-1.7-0.5c-2.4,0.4-4.1-0.6-5.1-2.8c0-0.2-0.1-0.4-0.1-0.6c0-0.3,0-0.7,0.1-1
			c-0.2-0.2-0.3-0.4-0.5-0.6c-0.2-0.4-0.4-0.8-0.6-1.1c-0.2-0.8-0.4-1.5-0.5-2.3c0,0,0,0,0,0c-0.6-0.7-1.2-1.5-1.7-2.2
			c-0.2-0.4-0.3-0.8-0.5-1.2c-0.6-0.7-1.2-1.5-1.7-2.2c-0.4-0.4-0.8-0.7-1.2-1.1c-0.4-0.4-0.8-0.8-1.1-1.1c-0.4-0.2-0.7-0.4-1.1-0.7
			c-0.2-0.3-0.5-0.7-0.7-1c-0.2,0-0.3,0-0.5,0c0-0.2,0-0.4,0-0.5c-0.2-0.1-0.5-0.2-0.7-0.3c-0.3-0.9-0.6-1.8-0.9-2.7
			c-0.2-0.2-0.5-0.4-0.7-0.5c-0.3-0.3-0.9-0.5-1-0.8c-0.9-3.2-4-3.1-6.3-4.3c0,0,0,0,0,0c-0.2-0.3-0.4-0.7-0.6-1
			c-0.1-0.1-0.3-0.1-0.5-0.1c-0.2-0.1-0.4-0.2-0.6-0.3c0.2,0.1,0.5,0.2,0.6,0.3c-0.2-1.3-0.4-2.6-0.6-3.9c-0.4-0.4-0.8-0.7-1.2-1.1
			c-0.4-0.3-0.7-0.7-1.1-1c-0.8-0.4-1.5-0.8-2.3-1.2c-0.5,0-1.1-0.1-1.6-0.1c-0.2-0.1-0.4-0.3-0.6-0.4c0,0,0,0,0,0
			c-1.3-1-2.6-1.9-4-2.9c-0.2,0-0.4,0-0.5-0.1c-0.2-0.2-0.4-0.3-0.6-0.5l0,0c-2.3-0.8-4.7-1.6-7-2.4c-0.1-0.1-0.2-0.1-0.2-0.3
			l-0.1-0.1c-0.2,0-0.4-0.1-0.6-0.1c-2.1-1.1-4.3-2.1-6.4-3.2c-0.3-0.4-0.6-0.8-1-1.1c-0.1-0.1-0.3-0.2-0.4-0.2
			c-2.7-0.2-5.3-0.3-8-0.6c-0.4,0-0.8-0.6-1.2-0.9c-1.3,0-2.6,0-3.9,0c-0.8,0-1.5-0.1-2.3-0.1c-2.6-0.1-5.2-0.1-7.8-0.2
			c-0.6,0-1.3,0.1-1.9,0.1c0,0,0.1,0.2,0.1,0.2c-0.8,0.6-1.5,1.6-2.3,1.7c-2,0.2-4.1,0-6.1,0c-0.8,0-1.5,0.1-2.3,0.1
			c-0.4,0.1-0.8,0.3-1.1,0.4c-0.4,0.1-0.7,0.1-1.1,0.2c-0.8,0.3-1.5,0.6-2.3,0.9c-0.4,0.1-0.7,0.2-1.1,0.3c-1.3,2-4,2.6-6.8,1.5
			c-0.6,0-1.1,0-1.7,0l0.1,0.1l-0.1,0.2c-0.6,0.1-1.2,0.3-1.7,0.4c-1.1,0-2.3,0-3.4,0c-0.2,0.1-0.4,0.2-0.6,0.2
			c-1,0.1-2.2,0.5-3.1,0.2c-1.6-0.5-2.5-0.1-3.2,1.2c0,0,0,0,0,0c-0.3,0.2-0.7,0.4-1,0.6c-0.6,3.1-2.4,1.7-4,1.1
			c-1.3,0.2-2.6,0.5-3.9,0.7c-0.2,2.5-1.7,3.5-4.1,3.3c-0.2,0-0.3,0-0.4,0.2c-0.5,0.3-0.9,0.6-1.4,0.9c-0.3,0.1-0.6,0.1-0.8,0.2
			c-0.3,3.3-0.3,3.3-5,3.3c-0.4,0.9-0.9,1.8-1.3,2.7c-0.2,0.1-0.3,0.1-0.5,0.1c-0.2,0.2-0.4,0.3-0.6,0.5l0.1,0.2
			c-1.2,0.7-2.3,1.3-3.5,2c-0.1,3.3-0.3,3.5-3.5,2.3c-0.9,0.6-1.7,1.2-2.6,1.8c-0.2,0.1-0.2,0.2-0.1,0.4c-0.2,0.7-0.3,1.9-0.6,2
			c-4.3,0.9-5.5,5.4-8.9,7.4c-1.9,1.2-3.6,2.6-5.2,4.1c-1.3,1.2-2.2,2.9-3.4,4.2c-0.6,0.7-1.5,1.2-2.4,1.6c-2,1-4.2,1.5-5.4,3.9
			c-0.7,1.5-2.6,2.4-3.9,3.6c-2.6,2.4-5,4.9-7.8,7.1c-1.4,1.1-3.3,1.6-5,2.3c-0.2,0.2-0.3,0.3-0.5,0.5c-0.7,3.1-1.8,5.9-4.2,8.2
			c-2.7,2.6-4.9,5.6-7.5,8.4c-1,1.1-2.4,1.8-3.5,2.8c-0.5,0.5-1.1,1.3-1.2,1.9c-0.2,2.6-1.5,4-3.8,5c-1.2,0.6-2.2,2.1-2.9,3.3
			c-0.2,0.3,1.2,1.5,1.9,2.2c1.7,1.7,3.3,3.5,6.1,3.5c0.3,0,0.5,0.8,0.7,1.1c-1.7,1-3.2,1.9-4.7,2.7c0.1,0.2,0.3,0.5,0.4,0.7
			c0.3,0,0.7,0.1,1,0.1c0.8,0.2,1.6,0.4,2.4,0.6c-0.1,0.2-0.2,0.4-0.2,0.6c0.1,0.1,0.1,0.3,0.1,0.4c0.4,0.2,0.7,0.4,1.1,0.6
			c0.6,0.3,1.1,0.5,1.7,0.8c1.5,0.5,3,1,4.5,1.5c0.4,0.1,0.8,0.1,1.1,0.2c0.2,0.1,0.4,0.3,0.6,0.4c1.3,0.2,2.6,0.4,3.9,0.7
			c0.6,0.1,1.2,0.2,1.8,0.4c0.5,0.3,1.1,0.6,1.6,0.8c1.1,0.3,2.3,0.7,3.4,1c0.6,0.2,1.1,0.5,1.7,0.7c1.5,0.5,3,1,4.6,1.5l0,0
			c0.6,0.2,1.1,0.4,1.7,0.6c0.8,0.4,1.5,0.8,2.3,1.2c0.8,0.3,1.6,0.6,2.4,1c0.2,0,0.3,0,0.5,0.1c2.4,0.2,4.9,0.4,7.3,0.6
			c3.9,1.1,8.4,0.3,11.8,3.4c0.1,0.1,0.1,0.3,0.2,0.5c0.4,0,0.7,0.1,1.1,0.1c0.4,0,0.7,0,1.1-0.1c3.6,1.3,7.2,2.6,10.8,3.8
			c0,0,0,0.2,0,0.2c1.5,0.5,3,1,4.6,1.6c0.2,0.2,0.4,0.3,0.6,0.5c0.9,0.6,1.9,1.2,2.8,1.8c1.5,0.3,3,0.7,4.5,1
			c0.9,0.2,1.9,0.4,2.8,0.7c1.3,0.2,2.6,0.4,3.9,0.6c0.2,0,0.4-0.1,0.6,0c2.9,1.9,5.5,4.2,9.1,4.6c0.2,0,0.4,0.6,0.6,0.9
			c0.2,0,0.4,0.1,0.5,0.1c0.7,0.3,1.5,0.5,2.2,0.8c1.9,0.8,3.8,1.6,5.6,2.6c0.5,0.3,0.8,1.1,1.1,1.7c0,0.2,0.1,0.4,0.1,0.6
			c0.4,0.4,0.8,0.7,1.1,1.1c0.5,0.5,1,1,1.6,1.5c0,0,0.1,0.2,0.1,0.2c0.5,0.3,1,0.7,1.5,1c0.8,0.3,1.6,0.5,2.4,0.8
			c1.6,0.7,3.3,1.3,4.9,2.1c2.2,1.2,4.4,2.6,6.5,3.9c2.4,1.4,4.7,2.8,7.1,4.2c0.9,0.6,1.8,1.1,2.8,1.7c0.3,0.2,0.9,0.4,0.9,0.5
			c-0.3,2.5,2.1,3.1,3.2,4.5c0.2,0.5,0.5,1,0.7,1.6l0,0c0.4,0.6,0.8,1.1,1.2,1.7c1.5,1.7,2.5,4.3,5.6,3.5c0.4,0,0.7,0,1.1,0
			c-0.3-0.5-0.5-1-0.8-1.5c0.3,0.5,0.6,1,0.8,1.5c0.4,0.9,0.8,1.8,1.2,2.7c2.1-0.1,3.8,0.7,4.6,2.8c1.1,0.9,2.9,1.5,3.3,2.6
			c1.2,3.3,4.7,6.2,2.4,10.3c0,0.6,0,1.2-0.1,1.8c4.2,1.2,4.3,1.4,3.4,5.7c-0.1,0.5-0.1,1.1-0.1,1.7l0,0c3.5,2.1,4.8,5.8,3.3,9.1
			c0,0.5,0,1.1,0.1,1.6c1.2,0.1,2.6,0,1,1.7c-0.1,0.4-0.3,0.7-0.4,1.1c0,0.4,0,0.7,0,1.1c0,0,0.2-0.1,0.2-0.1
			c0.1,0.6,0.3,1.2,0.4,1.8c0,0.4-0.1,0.7-0.1,1.1c0.3,1.1,0.6,2.2,1,3.4c0.1,0.2,0.3,0.4,0.4,0.5c0.1,0.6,0.3,1.2,0.4,1.7
			c-0.1,0.4-0.1,0.8-0.2,1.2c0.1,0.2,0.3,0.4,0.4,0.5c1.3,1.7,2.7,3.4,3.9,5.3c0.2,0.4-0.5,1.4-0.7,2.1c-0.1,0.4-0.1,0.8-0.2,1.1
			c0.1,0.2,0.1,0.3,0.2,0.5l0,0c0.1,0.2,0.3,0.4,0.4,0.6c0,1.1,0.1,2.2,0.1,3.3c0.1,0.2,0.3,0.4,0.4,0.6c0.2,0.4,0.5,0.7,0.7,1.1
			c0.2,0.4,0.3,0.8,0.5,1.2c0,0,0,0,0,0c0.3,1.3,0.7,2.6,1,3.9c0.2,1.3,0.5,2.6,0.7,3.9c0.4,0.9,0.8,1.9,1.2,2.8l0,0
			c0.7,1.5,1.4,3.1,2.1,4.6c0,0,0.1,0,0.1,0c0.3,0.9,0.7,1.9,1,2.8c0.2,0.9,0.4,1.9,0.6,2.8c0.1,1.1,0.2,2.2,0.2,3.3
			c0.7,0.6,1.6,1.1,2.1,1.8c0.7,1,1.1,2.1,1.6,3.2c0.8-0.6,1.6-1.2,2.4-1.8c0.5-0.4,1.1-0.6,1.6-0.9c0.8-1.8,1.6-3.6,2.4-5.3
			c0.4-0.8,0.8-1.7,1.2-2.5c0-0.8-0.1-1.5-0.1-2.3c0.2-3.7,0.4-7.4,0.5-11c0-0.9-0.3-1.7-0.4-2.6c-0.4,0.3-0.8,0.6-1.5,1.2
			c-0.2-1.6-1.2-3.1,1.3-3.4c0-0.6,0-1.1,0-1.7c-0.7-0.4-1.9-0.7-1.9-1.1c-0.4-3.6-0.7-7.3-0.7-10.9c0-1.3,1-2.5,1.5-3.8
			c0-2.6,0-5.3,0-7.9c-0.5,0.8-1,1.5-1.6,2.5c-0.7,0-1.6,0-2.6,0c-0.5-3.8-0.2-4.2,3.2-4.8c-0.2-0.8-0.3-1.6-0.5-2.3
			c0,0-0.2,0-0.2,0l-0.1,0.1c-2-0.1-2-1-0.9-2.4c-0.1-0.7-0.2-1.4-0.3-2.2c-0.3-0.2-0.5-0.4-0.8-0.6c0.3-0.2,0.5-0.4,0.8-0.6
			c0-0.9,0-1.9,0-2.8c-0.1-0.4-0.3-0.7-0.4-1.1c-0.2-1.5-0.3-3-0.5-4.5c0-1.3,0-2.6,0-3.8c0-0.2,0-0.5,0-0.7
			c0.1-0.2,0.1-0.3,0.2-0.5c-0.1-0.4-0.2-0.7-0.3-1.1c-0.3-0.2-0.8-0.4-1-0.7c-0.8-1.4-1.5-2.9-2.3-4.4c-1.2-0.1-2.5-0.1-1.1-1.7
			c-0.2-0.6-0.5-1.1-0.7-1.7c-2-1.6-2.8-11.2-1.1-13c0-1.5,0-3,0-4.5c1.3-2.7,0.4-5.6,0.7-8.4c0.2-1.5,1.1-3,1.7-4.5
			c0.2-0.1,0.4-0.1,0.5-0.2c0.1-0.2,0.3-0.5,0.4-0.7c-0.1-0.1-0.3-0.3-0.4-0.4c-0.1-1.1-0.3-2.2-0.3-2.6c0.9-1.5,1.3-2.7,2.1-3.6
			c1-1.1,2.2-1.9,3.3-2.9c0.4-0.6,0.7-1.1,1.1-1.7c-0.1-0.1-0.4-0.3-0.4-0.4c1.7-2.9,2.7-6.3,6-8.1c0-0.2,0-0.3,0-0.5c0,0,0,0,0,0
			c0.9-1.4,1.9-2.8,2.8-4.2c0.7-1,1.4-1.9,2-2.8c0.4-0.5,0.9-1,1.3-1.5c0.2-0.1,0.4-0.2,0.5-0.2c0.6-0.3,1.2-0.6,1.8-0.9
			c1.1-0.4,2.2-0.8,3.3-1.2c0-0.3,0-0.5,0.1-0.8c1.8-6.2,2.5-5.9,9-5.8c0.6-0.2,1.2-0.4,1.8-0.6c4.5-2.1,9.1-3.3,14-3.6
			c0.6-0.4,1.1-1,1.7-1c2.9,0.2,5.7,0.7,8.6,0.9c2.1,0.1,4.2-0.2,6.3-0.2c0.7,0,1.4,0.5,2.1,0.7c0.3,0.1,0.7,0.3,1,0.4
			c2.2,0,4.5,0,6.7-0.2c2.2-0.1,4.4-0.5,6.6-0.6c0.6,0,1.3,0.7,2,1.1c1.5,0.1,3,0.1,4.5,0.2c2.4-0.2,4.9-0.5,7.3-0.7
			c1-0.5,2-1.1,2.9-1.6c0.1-0.6,0.2-1.1,0.3-1.7C2305.2,111.6,2305.1,110.5,2305,109.4z M2077.4,122.3c1.4,0.2,2.9,0.3,4.2,0.6
			C2080.3,122.5,2078.8,122.5,2077.4,122.3z M2083.7,126.7c-0.2-0.1-0.4-0.1-0.4-0.2c0-0.1,0.1-0.3,0.2-0.5c0.2,0.1,0.3,0.1,0.5,0.2
			C2083.8,126.3,2083.7,126.5,2083.7,126.7z M2160.4,161.8c1,1,1.9,2.1,2.9,3.1C2162.3,163.9,2161.4,162.9,2160.4,161.8z
			 M2165.4,66.5c-0.1,0.1-0.3,0.1-0.4,0.1c-0.4,0.3-0.8,0.6-1.3,1c-5.5,2-10.5,1.3-13.3-2.3c-3.3-4.2-3.6-8.9,1.9-11.9
			c2.4-2.9,5.6-1.6,8.3-1.2c1.7,0.2,3.2,2,4.8,3c0.2,0.2,0.4,0.4,0.6,0.6C2170,59.2,2169.7,64.5,2165.4,66.5z M2170.9,172.7
			c0.5,0.5,0.9,1,1.5,1.7C2171.8,173.7,2171.4,173.2,2170.9,172.7z M2178.3,181.4c-0.3,0-0.9-0.5-0.9-0.7c0.1-0.4,0.5-0.8,0.7-1.2
			c0.3,0.3,0.6,0.5,1,0.9C2178.8,180.9,2178.6,181.4,2178.3,181.4z M2212.5,228.8c0.1,0.2,0.2,0.4,0.4,0.7c-0.2,0.2-0.4,0.4-0.6,0.4
			c-0.2,0-0.5-0.4-0.4-0.5C2212,229.1,2212.3,229,2212.5,228.8z M2263.9,85.9c4.5,1.4,9.7,1.1,13.6,4.5c0.8,0.7,2.4,1.1,3.4,0.8
			c4-1.1,6.6,1,9.3,3.2c1.1,0.9,2.2,2,3.5,3.1c-2,2.5-4.2,1.3-6,0.6c-4.6-1.7-9-3.6-13.5-5.5c-3.6-1.5-7.2-3.1-10.8-4.7
			c-0.5-0.2-0.7-0.9-1.1-1.3C2262.8,86.3,2263.5,85.8,2263.9,85.9z M2218.3,136.4c-1-2.4-1-3.3,0.3-4.7
			C2217.3,133.2,2217.3,134,2218.3,136.4z M2247.7,103.8c-1.8-1.1-4.3-0.7-6.5-1.3c-1-0.3-2.1-1-2.7-1.9c-0.3-0.4,0.5-1.6,0.9-2.4
			c0.8,0.4,1.7,1,2.5,1.1c1.6,0.3,3.3,0.7,5,0.6c2.8-0.2,6.4,1.5,7.1,4C2251.9,104.4,2250,105.2,2247.7,103.8z M2264.6,104.1
			c0-0.2,0-0.4,0-0.6c0.5,0,1.1-0.1,1.6-0.1c0,0.2,0,0.5,0,0.7C2265.7,104.1,2265.2,104.1,2264.6,104.1z M2293.6,110.2
			c-1.5-0.5-3-0.9-4.4-1.4c0,0,0,0,0,0c-0.7-0.2-1.5-0.4-2.2-0.6c-1.5-1-4.1-0.1-4.6-2.8c-0.4-0.2-0.8-0.4-1.1-0.6
			c-0.6-0.4-1.1-0.8-1.7-1.1c-0.2,0-0.3,0-0.5,0c-2.4-1-4.8-2.1-7.2-3c-1.4-0.6-2.8-0.9-4.1-1.6c-0.9-0.5-1.5-1.4-2.3-2.1
			c-1-0.5-1.9-1-2.9-1.6c-1.1-0.1-2.2-0.2-3.3-0.3c-0.6-0.1-1.1-0.3-1.7-0.4c-0.2,0-0.4,0-0.6,0c-0.2,0.3-0.5,0.6-0.7,0.8
			c-0.1-0.4-0.3-0.8-0.4-1.2c-1.3-0.1-2.6-0.3-3.9-0.4c-0.6,0.3-1.2,1-1.6,0.9c-1.3-0.4-3.1-0.3-2.9-2.5c-0.6-0.2-1.2-0.3-1.7-0.5
			c-2,1-3.8,0.6-5.6-0.6c-1.3-0.4-2.6-0.7-3.9-1.1c-0.4,0.2-0.7,0.3-1.1,0.5c-1.5-0.5-3.6,1.3-4.5-1.2c-1.9-0.3-3.8-0.7-5.7-1
			c-2.7,0-5.4,0-8.1-0.1c-2.4-0.1-4.8-0.3-7.2-0.5c-0.3,0.4-0.5,1-0.8,1c-3.9,0-7.8,0-11.6-0.2c-2-0.1-4.1-0.7-6-1.4
			c-0.8-0.3-1.3-1.4-1.9-2.1c0.9-0.5,1.9-1.5,2.8-1.4c5.8,0.5,11.6,1.2,17.5,1.9c5.3,0.2,10.7,0.4,16,0.6c0.5,0,1,0.4,1.5,0.6
			c2.8,0.4,5.6,0.8,8.5,1.2c0.5,0,1.1,0.1,1.6,0.1c0.8,0,1.5-0.1,2.3-0.1c0.6,0.2,1.1,0.3,1.7,0.5c0.8,0.1,1.5,0.3,2.3,0.4
			c0.2-2.2,1.2-2.6,2.8-1.1c0.9,0.8,1.9,1.6,2.8,2.4c1.7,0.4,3.4,0.8,5.1,1.2c0-0.2,0-0.4,0-0.6c0.6-0.4,1.2-0.7,1.8-1.1
			c0.4,0.7,0.7,1.4,1.1,2.1c1.1,0.3,2.2,0.6,3.3,0.8c0.8,0.4,1.6,0.7,2.4,1.1c0.3,0,0.7,0.1,1,0.1c2.9,0.8,5.7,1.5,8.6,2.4
			c4.2,1.3,8.3,2.8,12.4,4.2c0.4,0.4,0.8,0.7,1.2,1.1c4.4,1,7.5,3.9,10.7,6.8C2296.5,110.4,2295.4,110.8,2293.6,110.2z"/>
		<path d="M2230.4,126.3C2230.4,126.3,2230.4,126.3,2230.4,126.3C2230.4,126.3,2230.4,126.3,2230.4,126.3
			C2230.4,126.3,2230.4,126.3,2230.4,126.3z"/>
		<polygon points="2206.1,23.1 2206.1,23.1 2206.1,23.1 		"/>
		<polygon points="2283.5,76.7 2283.5,76.7 2283.5,76.7 		"/>
	</g>
	<path class="st1" d="M2275,116.4c2.2,0,4.5,0,6.7-0.2c2.2-0.1,4.4-0.5,6.6-0.6c0.6,0,1.3,0.7,2,1.1c-2.7,0.2-5.4,0.5-8.1,0.7
		c-2,0.1-4,0.2-6,0.1C2275.8,117.5,2275.4,116.8,2275,116.4z"/>
	<path class="st4" d="M2148,160.7c2.4,1.4,4.7,2.8,7.1,4.2c0.9,0.6,1.8,1.1,2.8,1.7c0.3,0.2,0.9,0.4,0.9,0.5
		c-0.3,2.5,2.1,3.1,3.2,4.5c-0.2,0-0.3,0.1-0.5,0.2c-1.6-1.4-3.2-2.8-4.9-4.1c-2.8-2.2-5.8-4.2-8.7-6.4c0-0.2-0.1-0.3-0.1-0.4
		C2147.8,160.9,2148,160.7,2148,160.7z"/>
	<path class="st5" d="M2176.2,183.9c1.1,0.9,2.9,1.5,3.3,2.6c1.2,3.3,4.7,6.2,2.4,10.3c-0.2-0.9-0.2-1.8-0.5-2.6
		c-0.3-0.9-0.8-1.6-1.3-2.4c-0.2-0.2-0.4-0.4-0.6-0.6c0,0,0,0,0,0c-0.6-1.4-1.1-2.8-1.8-4.2c-0.3-0.5-0.7-1-1.1-1.5c0,0,0,0,0,0
		c-0.2-0.3-0.4-0.7-0.6-1c0,0,0-0.1,0-0.1C2176.2,184.3,2176.2,184.1,2176.2,183.9z"/>
	<path class="st6" d="M2215,245.4c0.1-0.2,0.1-0.4,0.2-0.6c0.5,1.2,1.5,2.3,1.5,3.5c0.2,4,0.2,8,0,12c0,0.9-1,1.7-1.5,2.6
		c0.2-3.7,0.4-7.4,0.5-11c0-0.9-0.3-1.7-0.4-2.6c-0.1-0.7-0.1-1.5-0.2-2.2C2215.1,246.6,2215.1,246,2215,245.4z"/>
	<path class="st0" d="M2206.7,156.8c-0.1-1.1-0.3-2.2-0.3-2.6c0.9-1.5,1.3-2.7,2.1-3.6c1-1.1,2.2-1.9,3.3-2.9
		c-0.2,0.9-0.5,1.9-0.7,2.8c-0.1,0.2-0.3,0.4-0.4,0.6c-0.8,2.3-1.6,4.5-3.7,6C2206.9,157.1,2206.8,156.9,2206.7,156.8z"/>
	<path class="st4" d="M2042.2,67c-0.2,1.1-0.4,2.3-0.6,3.4c-0.2,0.2-0.3,0.3-0.5,0.5c-1.7,1.1-3.5,2-5,3.3c-1.3,1.2-2.1,2.8-3.2,4.2
		c-0.2-0.4-0.3-0.8-0.5-1.2c0.1-0.2,0.1-0.3-0.1-0.5c0.5-0.9,1-1.9,1.4-2.8c1.4-0.6,2.7-1.2,4.1-1.8c0.2,0,0.3,0,0.4-0.2
		c0.3-0.2,0.5-0.5,0.8-0.7c0.7-1.1,1.4-2.2,2.1-3.3C2041.6,67.5,2041.9,67.3,2042.2,67z"/>
	<path class="st5" d="M2181.9,198.6c4.2,1.2,4.3,1.4,3.4,5.7c-0.1,0.5-0.1,1.1-0.1,1.7c-1.6,0-2.3-0.4-2.1-2.3
		c0.2-1.1-0.8-2.3-1.2-3.4c-0.1-0.4-0.1-0.7-0.2-1.1c0-0.2,0-0.4,0-0.6L2181.9,198.6z"/>
	<path class="st1" d="M2210.2,203.1c0-1.3,0-2.6,0-3.8c0.2-0.2,0.3-0.4,0.5-0.6c-0.1-0.2-0.2-0.4-0.3-0.6c-0.1-0.4-0.2-0.7-0.3-1.1
		c0.1-0.1,0.3-0.3,0.4-0.4c1.3-1.1,1.1-2.1-0.1-3.1c-0.1-0.3-0.1-0.7-0.2-1c0.2,0,0.4,0,0.6,0c0.7,1,1.9,2.1,1.8,3.1
		c-0.2,2.6-0.9,5.1-1.5,7.7C2210.8,203.1,2210.5,203.1,2210.2,203.1z"/>
	<path class="st1" d="M2207.1,157.2c2.1-1.5,2.9-3.7,3.7-6c0.5,1.4,1,2.7,1.5,4c-1.4,2.1-2.7,4.2-5.6,2.7
		C2206.8,157.7,2206.9,157.4,2207.1,157.2z"/>
	<path class="st0" d="M2214.2,220.6c-0.1,0.4-0.2,0.8-0.2,1.1c-0.5,0.8-1,1.5-1.6,2.5c-0.7,0-1.6,0-2.6,0c-0.5-3.8-0.2-4.2,3.2-4.8
		c0.3,0.1,0.6,0.1,0.9,0.2C2214,220,2214.1,220.3,2214.2,220.6z"/>
	<path class="st0" d="M2305,109.4c-0.4,0.1-1,0.5-1.2,0.4c-2-1.5-2.8-6.5-1.5-8.9c0.5,1,1,2,1.4,3c0,0,0,0,0,0
		c0.4,0.6,0.8,1.1,1.2,1.7c0,0.9,0.1,1.9,0.1,2.8C2305,108.6,2305,109,2305,109.4z"/>
	<path class="st4" d="M2086.8,32c-0.9,0.6-1.7,1.2-2.6,1.8c0.3-0.9,0.5-1.7,0.8-2.6c0.9-0.8,1.8-1.6,2.7-2.4
		c0.2-0.1,0.3-0.3,0.5-0.4c1.9-0.3,3.7-0.5,5.6-0.8c-1.2,0.7-2.3,1.3-3.5,2C2088.4,29.4,2087.4,30.4,2086.8,32z"/>
	<path class="st7" d="M2136.6,154.6c1.6,0.7,3.3,1.3,4.9,2.1c2.2,1.2,4.4,2.6,6.5,3.9c0,0-0.2,0.2-0.2,0.2c-0.2-0.1-0.3,0-0.5,0.1
		c-1.7-0.6-3.4-1.3-5-1.9c-0.2-0.2-0.4-0.3-0.6-0.5c-0.8-0.6-1.6-1.2-2.4-1.8c-0.1-0.1-0.3-0.3-0.4-0.4
		C2138.1,155.8,2137.4,155.2,2136.6,154.6z"/>
	<path class="st4" d="M2066,124.7c3.9,1.1,8.4,0.3,11.8,3.4c-0.2,0-0.3,0-0.5,0.1c-1.1-0.2-2.3-0.4-3.4-0.6c-0.2-0.1-0.4-0.1-0.5,0
		c-2.3-0.6-4.5-1.2-6.8-1.9C2066.4,125.4,2066.2,125.1,2066,124.7z"/>
	<path class="st7" d="M2110,138.8c0.2,0,0.4-0.1,0.6,0c2.9,1.9,5.5,4.2,9.2,4.6c0.2,0,0.4,0.6,0.6,0.9c-0.2,0.1-0.4,0.2-0.5,0.3
		c-1.7-0.3-3.4-0.5-5.1-0.8c-0.8-0.8-1.5-1.5-2.3-2.3c-0.7-0.6-1.5-1.1-2.2-1.7C2110.1,139.5,2110.1,139.2,2110,138.8z"/>
	<path class="st1" d="M2230.4,126.3c0-0.3,0-0.6,0.1-0.8c1.8-6.2,2.5-5.9,9-5.8c-1.3,0.5-2.5,1.2-3.8,1.4c-2,0.4-3.3,1.3-3.6,3.5
		C2231.9,125.2,2230.9,125.7,2230.4,126.3z"/>
	<path class="st8" d="M2015.3,106c1.2,3.3,3.7,4.3,6.9,4.1c0.1,0.2,0.3,0.5,0.4,0.7c-0.9,0-1.9,0.2-2.8,0.1
		c-4.1-0.2-4.8-0.8-5.1-4.7C2014.9,106.2,2015.1,106.1,2015.3,106z"/>
	<path class="st7" d="M2120.8,144.4c0.7,0.3,1.5,0.5,2.2,0.8c1.9,0.8,3.8,1.6,5.6,2.6c0.5,0.3,0.8,1.1,1.1,1.7
		c-1.5-0.1-3-0.3-4.4-0.4c-1.2-1-2.3-2-3.5-3c-0.2-0.2-0.3-0.4-0.5-0.6c-0.2-0.2-0.4-0.4-0.5-0.5
		C2120.9,144.8,2120.8,144.6,2120.8,144.4z"/>
	<path class="st8" d="M2095.5,22.1c1.7-0.8,3.3-1.5,5-2.3c0.4-0.1,0.8-0.2,1.1-0.3c0.2,0.1,0.4,0.1,0.6,0.2c-0.1,0.3-0.2,0.7-0.3,1
		c-0.3,0.1-0.6,0.1-0.8,0.2c-1.1,0.4-2.3,0.7-3.3,1.4c-0.7,0.4-1.2,1.3-1.7,2c-0.4,0.9-0.9,1.8-1.3,2.7
		C2095,25.3,2095.2,23.7,2095.5,22.1z"/>
	<path class="st2" d="M2215.1,33.2c-0.3-0.3-0.9-0.5-1-0.8c-0.9-3.2-4-3.1-6.3-4.3c-0.2-0.3-0.4-0.7-0.6-1c0.8-0.1,1.5-0.1,2.3-0.2
		C2211.9,28.5,2215.5,29.1,2215.1,33.2z"/>
	<path class="st1" d="M2211.1,150.6c0.2-0.9,0.5-1.9,0.7-2.8c0.4-0.6,0.7-1.1,1.1-1.7c1.3-1.3,2.6-2.7,3.8-4
		c0.1,0.1,0.2,0.1,0.2,0.2C2215,145,2214.8,149,2211.1,150.6z"/>
	<path class="st0" d="M2216.8,142.1c-1.3,1.3-2.6,2.7-3.8,4c-0.1-0.1-0.4-0.3-0.4-0.4c1.7-2.9,2.7-6.3,6-8.1c0,0.2,0,0.4,0,0.7
		c-0.5,1.1-1.1,2.2-1.6,3.3C2216.9,141.8,2216.8,141.9,2216.8,142.1z"/>
	<path class="st6" d="M2303.8,103.8c-0.5-1-1-2-1.4-3c-0.3-0.6-0.6-1.3-0.8-1.9c-0.5-1.2-1-2.5-1.5-3.7c-0.1-0.4-0.1-0.7-0.2-1.1
		c0-0.4,0.1-0.7,0.1-1.1c0,0,0.2-0.2,0.2-0.2c0.5,1.1,1,2.2,1.6,3.2c0.4,0.7,0.8,1.3,1.8,1.7C2303.5,99.9,2303.6,101.9,2303.8,103.8
		z"/>
	<path class="st1" d="M2102.2,19.7c-0.2-0.1-0.4-0.1-0.6-0.2c0.5-0.6,1.1-1.2,1.6-1.8c-0.3-0.7-0.7-1.4-1.4-2.9
		c1.5,0.8,2.3,1.3,2.9,1.6c1-0.5,1.8-0.9,2.6-1.3c-0.2,0.4-0.3,0.7-0.5,1.1c-1,1.1-2,2.2-3.1,3.3c-0.2,0-0.3,0-0.4,0.2
		C2102.9,19.7,2102.6,19.7,2102.2,19.7z"/>
	<path class="st1" d="M2181.8,200.2c0.5,1.2,1.4,2.4,1.2,3.4c-0.3,1.9,0.5,2.3,2.1,2.3c0,0,0,0,0,0c0.4,1.5,0.8,3,1.2,4.5
		c0,0-0.1,0.1-0.1,0.1c-0.3-0.1-0.7-0.1-0.8-0.3C2184.3,206.9,2180.6,204.5,2181.8,200.2z"/>
	<path class="st6" d="M2211.2,275.3c0.2-0.8,0.3-1.5,0.5-2.3c0.8-1.8,1.6-3.6,2.4-5.3c0.4-0.8,0.8-1.7,1.2-2.5
		C2215.6,269.3,2214.2,272.6,2211.2,275.3z"/>
	<path class="st7" d="M2080.1,128.7c3.6,1.3,7.2,2.6,10.8,3.8c-0.4,0-0.8,0.1-1.1,0.1c-0.8-0.2-1.5-0.3-2.3-0.5
		c-1.1-0.3-2.1-0.6-3.2-1c-0.5-0.2-1-0.4-1.4-0.6c-0.7-0.3-1.4-0.6-2.1-0.8C2080.5,129.4,2080.3,129,2080.1,128.7z"/>
	<path class="st9" d="M2191.7,230.7c1.3,1.7,2.7,3.4,3.9,5.3c0.2,0.4-0.5,1.4-0.7,2.1c0,0-0.3,0-0.3,0s-0.3-0.1-0.3-0.1
		c-0.2-0.6-0.4-1.3-0.6-1.9c-0.2-0.5-0.4-1-0.7-1.5c-0.5-0.8-1-1.5-1.5-2.3C2191.6,231.8,2191.7,231.3,2191.7,230.7z"/>
	<path class="st2" d="M2218.6,138.3c0-0.2,0-0.4,0-0.7c0-0.2,0-0.3,0-0.5c0.9-1.4,1.9-2.8,2.8-4.2c0.7-1,1.4-1.9,2-2.8
		c0.1,0.1,0.2,0.1,0.2,0.2c0,0.2,0,0.4,0.1,0.5c0,0.2,0,0.4,0,0.6c-0.4,1.1-0.8,2.2-1.3,3.4c-0.6,0.7-1.1,1.5-1.7,2.2
		C2220.1,137.4,2219.3,137.9,2218.6,138.3z"/>
	<path class="st3" d="M2178.6,8.2c-2.7-0.2-5.3-0.3-8-0.6c-0.4,0-0.8-0.6-1.2-0.9C2172.5,6.9,2175.8,6,2178.6,8.2z"/>
	<path class="st7" d="M2064.4,48.6c-1.4,1.1-2.8,2.2-4.3,3.3c-0.1-0.1-0.3-0.1-0.4-0.1c-0.1-0.3-0.2-0.7-0.3-1
		c0.9-0.8,1.9-1.6,2.8-2.5c0,0,0.1-0.2,0.1-0.2l-0.2-0.1c0.4,0.1,0.7,0.1,1.1,0.2C2063.6,48.3,2064,48.4,2064.4,48.6z"/>
	<path class="st1" d="M2294.8,116.9c2.4-0.2,4.9-0.5,7.3-0.7c-0.1,0.3-0.1,0.8-0.3,1C2301.1,117.9,2295.7,117.7,2294.8,116.9z"/>
	<path class="st1" d="M2066,124.7c0.2,0.3,0.4,0.7,0.6,1c-1.8,0-3.7,0.2-5.5-0.1c-0.9-0.1-1.6-1-2.4-1.5
		C2061.1,124.4,2063.6,124.5,2066,124.7z"/>
	<path class="st10" d="M2292,83.9c-2.3-0.7-5.1-0.6-6.4-3.2c-0.3-0.5-0.3-1.2-0.4-1.8C2287.5,80.6,2289.7,82.3,2292,83.9z"/>
	<path class="st10" d="M2244.5,56.8c-2.6-0.4-5.3-0.7-7.9-1.1C2239.4,55,2242.2,54.3,2244.5,56.8z"/>
	<path class="st1" d="M2186.3,12.8c-2.1-1.1-4.3-2.1-6.4-3.2c0-0.2,0.1-0.4,0.1-0.6C2183,8.8,2185.4,9.5,2186.3,12.8z"/>
	<path class="st1" d="M2267.1,116.9c1.9-0.2,3.8-0.3,5.7-0.5C2270.2,118.8,2268.8,118.9,2267.1,116.9z"/>
	<path class="st6" d="M2305,109.4c0-0.4,0-0.7,0.1-1.1c0.9,1.1,1.8,2.3,2.9,3.6c-1.1,1-2,1.8-2.9,2.6c0.1-0.6,0.2-1.1,0.3-1.7
		C2305.2,111.6,2305.1,110.5,2305,109.4z"/>
	<path class="st1" d="M2194.2,15.8c-2.3-0.8-4.7-1.6-7-2.4C2191.1,12.3,2192.4,12.8,2194.2,15.8z"/>
	<path class="st2" d="M2131.5,11.1c1.9-0.3,3.8-0.6,5.7-0.9c-1.3,2-4,2.6-6.8,1.5c0-0.2,0-0.3,0-0.5
		C2130.8,11.2,2131.2,11.1,2131.5,11.1z"/>
	<path class="st1" d="M2199.9,257.2c0.7,1.5,1.4,3.1,2.1,4.6c-0.8,0.1-1.6,0.2-2.7,0.3C2199.5,260.4,2199.7,258.8,2199.9,257.2z"/>
	<path class="st6" d="M2057.6,54.7c-1.2,0.6-2.5,1.2-3.7,1.8c-0.9,0.4-1.7,0.8-2.6,1.3c0.3-0.7,0.5-1.7,1-1.9
		C2054,55.3,2055.8,55,2057.6,54.7z"/>
	<path class="st11" d="M2211.4,214.9c-0.1-0.7-0.2-1.4-0.3-2.2c0-0.4,0-0.8,0-1.2c0-0.9,0-1.9,0-2.8c0,0,0.2-0.1,0.2-0.1l0.2,0.1
		c0.2,2.2,0.3,4.3,0.5,6.5C2211.8,215.1,2211.6,215,2211.4,214.9z"/>
	<path class="st1" d="M2176.2,183.9c0,0.2-0.1,0.4-0.1,0.6c-1.5-1.1-3-2.3-4.4-3.4C2173.8,181,2175.5,181.7,2176.2,183.9z"/>
	<path class="st1" d="M2083,32.1c0.2-0.9,0.4-1.8,0.5-2.8c0.4-0.2,0.8-0.4,1.1-0.6c0,0,0.1,0.1,0.1,0.1c0.1,0.8,0.2,1.7,0.2,2.5
		c-0.3,0.9-0.5,1.7-0.8,2.6c-0.2,0.1-0.2,0.2-0.1,0.4c-0.3,0.1-0.7,0.1-1,0.2C2083,33.6,2083,32.8,2083,32.1z"/>
	<path class="st1" d="M2218.6,138.3c0.7-0.4,1.5-0.8,2.2-1.3c-1.3,1.5-2.6,3-3.8,4.6C2217.5,140.5,2218.1,139.4,2218.6,138.3z"/>
	<path class="st1" d="M2176.8,185.6c0.4,0.5,0.8,0.9,1.1,1.5c0.6,1.4,1.2,2.8,1.8,4.2C2176,190.7,2176.9,187.9,2176.8,185.6z"/>
	<path class="st1" d="M2191.6,232.4c0.5,0.8,1,1.5,1.5,2.3c-1.3,0.1-2.5,0.2-3.8,0.2c-0.1-0.2-0.2-0.3-0.3-0.5
		C2189.9,233.8,2190.7,233.1,2191.6,232.4z"/>
	<path class="st6" d="M2029,82.7c-1.1,1.2-2.1,2.4-3.2,3.5C2025.4,83.7,2026.6,82.4,2029,82.7z"/>
	<path class="st6" d="M2297.7,90.2c-0.4-0.6-0.7-1.1-1.1-1.7c2.7,0.3,3,2.4,3.4,4.4c0,0-0.2,0.2-0.2,0.2c-0.5-0.4-1.1-0.9-1.6-1.3
		C2298.1,91.3,2297.9,90.7,2297.7,90.2z"/>
	<path class="st1" d="M2059.8,48.5c-0.4-0.8-0.7-1.6-1.1-2.4c0.2-0.2,0.5-0.4,0.7-0.6c0.9,0.8,1.8,1.7,2.6,2.5c0,0,0.2,0.1,0.2,0.1
		s-0.1,0.2-0.1,0.2C2061.4,48.3,2060.6,48.4,2059.8,48.5z"/>
	<path class="st1" d="M2123.1,12.2c-1.5-0.4-3-0.8-4.5-1.1c0.6-0.3,1.4-1,1.7-0.9C2121.3,10.7,2122.2,11.5,2123.1,12.2z"/>
	<path class="st1" d="M2028.7,114.1c1.5,0.5,3,1,4.5,1.5C2031.5,115.9,2029.5,116.7,2028.7,114.1z"/>
	<path class="st10" d="M2269.4,67.5c-1.5-0.9-3-1.8-4.5-2.7C2266.4,65.7,2267.9,66.6,2269.4,67.5z"/>
	<path class="st1" d="M2115.7,12.8c-1.5,0-3,0.1-4.5,0.1C2112.7,11,2114.2,11.2,2115.7,12.8z"/>
	<path class="st10" d="M2209.5,26.9c-0.8,0.1-1.5,0.1-2.3,0.2c-0.1-0.1-0.3-0.1-0.5-0.1c-0.2-1.3-0.4-2.6-0.6-3.9
		c0.4,0.4,0.8,0.8,1.2,1.3C2208,25.2,2208.8,26,2209.5,26.9z"/>
	<path class="st1" d="M2098.8,136.6c1.5,0.3,3,0.7,4.5,1C2101.8,137.3,2100.3,136.9,2098.8,136.6z"/>
	<path class="st1" d="M2088.2,28.5c-0.2,0.1-0.3,0.3-0.5,0.4c-1,0-2-0.1-2.9-0.1c0,0-0.1-0.1-0.1-0.1
		C2085.7,27.4,2086.8,25.6,2088.2,28.5z"/>
	<path class="st11" d="M2210.2,203.1c0.3,0,0.6,0,0.9,0.1c0.1,1.6,0.2,3.2,0.3,4.7c-0.3-0.1-0.5-0.2-0.8-0.3
		C2210.5,206.1,2210.3,204.6,2210.2,203.1z"/>
	<path class="st1" d="M2199.3,19.2c-1.3-1-2.6-1.9-4-2.9C2196.6,17.3,2198,18.2,2199.3,19.2z"/>
	<path class="st1" d="M2125.3,149.1c1.5,0.1,3,0.3,4.4,0.4c0,0.2,0.1,0.4,0.1,0.6C2128.3,149.7,2126.8,149.4,2125.3,149.1z"/>
	<path class="st1" d="M2047.4,119.7c1.5,0.5,3,1,4.6,1.5C2050.4,120.7,2048.9,120.2,2047.4,119.7z"/>
	<path class="st1" d="M2187.2,214.9c-0.3-1.5-0.7-2.9-1-4.4c0,0,0.1-0.1,0.1-0.1c0.4,1.5,0.8,3,1.2,4.5l-0.2-0.1
		C2187.4,214.9,2187.2,214.9,2187.2,214.9z"/>
	<path class="st1" d="M2227.1,127.5c1.1-0.4,2.2-0.8,3.3-1.2c-1.4,0.7-2.8,1.5-4.1,2.2C2226.5,128.2,2226.8,127.8,2227.1,127.5z"/>
	<path class="st11" d="M2090.8,132.7c1.5,0.5,3,1,4.6,1.6c0,0.2-0.1,0.3-0.1,0.5C2093.8,134.1,2092.3,133.4,2090.8,132.7z"/>
	<path class="st10" d="M2255.3,61.4c-1.1-0.3-2.3-0.7-3.4-1C2253.3,59.6,2254.8,58.7,2255.3,61.4z"/>
	<path class="st10" d="M2273.9,70c-1.2-0.7-2.4-1.5-3.6-2.2C2271.7,68,2273.6,67.7,2273.9,70z"/>
	<path class="st1" d="M2042.3,118c1.1,0.3,2.3,0.7,3.4,1C2044.5,118.7,2043.4,118.3,2042.3,118z"/>
	<path class="st5" d="M2211.4,214.9c0.2,0.1,0.4,0.2,0.6,0.3c0.1,0.7,0.2,1.4,0.3,2C2210.2,217.1,2210.2,216.2,2211.4,214.9z"/>
	<path class="st1" d="M2019,95.3c-0.4,0.5-0.8,1.1-1.1,1.6c-0.2,0.1-0.5,0.1-0.7,0.2c-0.2-0.4-0.5-0.9-0.7-1.3
		C2017.3,95.6,2018.2,95.5,2019,95.3z"/>
	<path class="st1" d="M2127,12.4c-1.1,0-2.3,0-3.4,0c0.9-1.8,2.1-1.4,3.4-0.5C2127.1,12,2127,12.2,2127,12.4z"/>
	<path class="st1" d="M2169.4,178.4c0.4,0,0.7,0,1.1,0c0.4,0.9,0.8,1.8,1.2,2.7C2170.9,180.2,2170.2,179.3,2169.4,178.4z"/>
	<path class="st1" d="M2110,138.8c0.1,0.3,0.1,0.7,0.2,1c-1.3-0.5-2.7-1-4-1.6C2107.4,138.5,2108.7,138.6,2110,138.8z"/>
	<path class="st10" d="M2276.7,72.1c-1-0.7-1.9-1.4-2.9-2.1C2274.8,70.7,2275.8,71.4,2276.7,72.1z"/>
	<path class="st8" d="M2026.1,111.7c-0.1,0.2-0.2,0.4-0.2,0.6c-0.7-0.4-1.5-0.8-2.2-1.3C2024.5,111.2,2025.3,111.4,2026.1,111.7z"/>
	<path class="st8" d="M2016.8,98.6c-0.4,1.2-0.9,2.3-1.3,3.5C2015.9,101,2016.4,99.8,2016.8,98.6z"/>
	<path class="st1" d="M2222.5,134.8c0.4-1.1,0.8-2.2,1.3-3.4C2223.3,132.6,2222.9,133.7,2222.5,134.8z"/>
	<path class="st10" d="M2223.7,43.4c-0.6-0.7-1.2-1.5-1.7-2.2C2222.5,41.9,2223.1,42.6,2223.7,43.4z"/>
	<path class="st1" d="M2200.3,273.3c-0.4,0.7-0.8,1.4-1.2,2.1c-0.2-0.6-0.5-1.2-0.7-1.7C2199,273.5,2199.7,273.4,2200.3,273.3z"/>
	<path class="st3" d="M2188.5,215c0,0.5,0,1.1,0.1,1.6c0,0.4-0.1,0.8-0.1,1.2c-0.4-1-0.8-2-1.2-3c0,0,0.2-0.1,0.2-0.1
		s0.2,0.1,0.2,0.1C2187.9,215,2188.2,215,2188.5,215z"/>
	<path class="st10" d="M2216.6,36.4c-0.3-0.9-0.6-1.8-0.9-2.7c0.5,1,1.1,2,1.6,3C2217.1,36.6,2216.9,36.5,2216.6,36.4z"/>
	<path class="st10" d="M2296,87.3c-2.2,0.6-1.7-1-1.7-2.2C2294.8,85.9,2295.4,86.6,2296,87.3z"/>
	<path class="st8" d="M2202.2,261.8c0.3,0.9,0.7,1.9,1,2.8c-0.2-0.2-0.4-0.4-0.6-0.6c-0.1-0.5-0.2-0.9-0.3-1.4
		C2202.2,262.4,2202.2,262.1,2202.2,261.8z"/>
	<path class="st12" d="M2188.5,217.9c0-0.4,0.1-0.8,0.1-1.2c1.2,0.1,2.6,0,1,1.7c-0.3,0-0.5-0.1-0.8-0.1
		C2188.6,218.2,2188.5,218.1,2188.5,217.9z"/>
	<path class="st10" d="M2247.9,58.6c-0.7-0.6-1.5-1.2-2.2-1.8C2247.3,56.3,2248,57,2247.9,58.6z"/>
	<path class="st1" d="M2197.1,246.6c0.3,1.3,0.7,2.6,1,3.9C2197.8,249.2,2197.4,247.9,2197.1,246.6z"/>
	<path class="st11" d="M2213.9,219.6c-0.3-0.1-0.6-0.1-0.9-0.2c-0.2-0.8-0.3-1.6-0.5-2.3C2213,218,2213.4,218.8,2213.9,219.6z"/>
	<path class="st1" d="M2112.4,141.5c0.8,0.8,1.5,1.5,2.3,2.3C2113,144,2112.2,143.2,2112.4,141.5z"/>
	<path class="st1" d="M2198.8,254.4c0.4,0.9,0.8,1.9,1.2,2.8C2199.6,256.3,2199.2,255.4,2198.8,254.4z"/>
	<path class="st10" d="M2226.4,49c-0.2-0.8-0.4-1.5-0.5-2.3C2227.5,47.2,2227.3,48,2226.4,49z"/>
	<path class="st10" d="M2225.9,46.8c-0.6-0.7-1.2-1.5-1.7-2.2C2224.7,45.3,2225.3,46,2225.9,46.8z"/>
	<path class="st1" d="M2191.5,229c-0.1,0.4-0.1,0.8-0.2,1.2c-1.3-0.5-2-1.1-0.8-2.4c0,0,0.2,0,0.2,0l0.2,0
		C2191.1,228.2,2191.3,228.6,2191.5,229z"/>
	<path class="st4" d="M2032.8,79.5c-0.4,0.7-0.9,1.4-1.3,2.1C2031.9,80.9,2032.3,80.2,2032.8,79.5z"/>
	<path class="st10" d="M2280.1,75c-0.8-0.6-1.6-1.1-2.3-1.7C2278.6,73.9,2279.3,74.5,2280.1,75z"/>
	<path class="st10" d="M2283.5,76.7c-0.9-0.4-1.8-0.8-2.6-1.2C2281.7,75.9,2282.6,76.3,2283.5,76.7z"/>
	<path class="st13" d="M2165.4,6.7c-0.8,0-1.5-0.1-2.3-0.1C2163.9,6.7,2164.7,6.7,2165.4,6.7z"/>
	<path class="st10" d="M2203.8,20.9c-0.8-0.4-1.5-0.8-2.3-1.2C2202.3,20.1,2203.1,20.5,2203.8,20.9z"/>
	<path class="st1" d="M2055.8,123.1c0.8,0.3,1.6,0.6,2.4,1C2057.4,123.7,2056.6,123.4,2055.8,123.1z"/>
	<path class="st14" d="M2064.4,48.6c-0.4-0.1-0.8-0.3-1.2-0.4c1-0.2,1.9-0.5,2.9-0.7C2065.5,47.8,2064.9,48.2,2064.4,48.6z"/>
	<path class="st13" d="M2153.5,6.5c0-0.3,0.1-0.6,0.1-0.9c0.6,0.3,1.2,0.6,1.8,0.8C2154.7,6.4,2154.1,6.5,2153.5,6.5z"/>
	<path class="st5" d="M2210.7,207.6c0.3,0.1,0.5,0.2,0.8,0.3c0,0.3,0.1,0.5,0.1,0.8c0,0-0.2-0.1-0.2-0.1s-0.2,0.1-0.2,0.1
		C2211,208.4,2210.8,208,2210.7,207.6z"/>
	<path class="st1" d="M2038.9,116.8c0.6,0.1,1.2,0.2,1.8,0.4C2040.1,117,2039.5,116.9,2038.9,116.8z"/>
	<path class="st1" d="M2130.4,11.2c0,0.2,0,0.3,0,0.5c-0.6,0-1.1,0-1.7,0C2129.3,11.5,2129.8,11.4,2130.4,11.2z"/>
	<path class="st1" d="M2051.9,121.2c0.6,0.2,1.1,0.4,1.7,0.6C2053,121.6,2052.5,121.4,2051.9,121.2z"/>
	<path class="st2" d="M2127,12.4c0-0.2,0-0.3,0-0.5c0.6,0,1.1,0,1.7,0.1C2128.2,12.1,2127.6,12.2,2127,12.4z"/>
	<path class="st3" d="M2189.4,220.5c0.1,0.6,0.3,1.2,0.4,1.8c-0.2-0.1-0.4-0.2-0.5-0.3C2189.3,221.5,2189.3,221,2189.4,220.5z"/>
	<path class="st11" d="M2087.4,132.1c0.8,0.2,1.5,0.3,2.3,0.5C2089,132.4,2088.2,132.3,2087.4,132.1z"/>
	<path class="st10" d="M2234.4,55.7c-0.6-0.2-1.1-0.3-1.7-0.5C2233.2,55.4,2233.8,55.5,2234.4,55.7z"/>
	<path class="st1" d="M2067.7,46.2c-0.6,0.4-1.1,0.7-1.7,1.1C2066.6,46.9,2067.1,46.6,2067.7,46.2z"/>
	<path class="st6" d="M2305,105.5c-0.4-0.6-0.8-1.1-1.2-1.7C2304.2,104.4,2304.6,104.9,2305,105.5z"/>
	<path class="st1" d="M2131,151.2c0.5,0.5,1,1,1.6,1.5C2132,152.1,2131.5,151.6,2131,151.2z"/>
	<path class="st1" d="M2083,34.4c-0.6,0.3-1.2,0.7-1.7,1C2081.8,35,2082.4,34.7,2083,34.4z"/>
	<path class="st1" d="M2161.5,171.8c0.1-0.1,0.3-0.2,0.5-0.2c0.2,0.5,0.5,1,0.7,1.6C2162.3,172.7,2161.9,172.3,2161.5,171.8z"/>
	<path class="st1" d="M2162.6,173.2c0.4,0.6,0.8,1.1,1.2,1.7C2163.4,174.3,2163,173.7,2162.6,173.2z"/>
	<path class="st1" d="M2020.7,93.6c-0.5,0.4-1.1,0.8-1.6,1.2C2019.7,94.4,2020.2,94,2020.7,93.6z"/>
	<path class="st2" d="M2223.4,130.1c0.4-0.5,0.9-1,1.3-1.5c-0.2,0.5-0.4,1-0.6,1.6c-0.2,0-0.3,0-0.5,0.1
		C2223.6,130.2,2223.5,130.2,2223.4,130.1z"/>
	<path class="st1" d="M2080.1,128.7c0.2,0.4,0.4,0.7,0.6,1.1c-0.6-0.3-1.1-0.7-1.7-1C2079.4,128.7,2079.7,128.7,2080.1,128.7z"/>
	<path class="st10" d="M2284.7,77.8c-0.4-0.4-0.8-0.7-1.2-1.1C2283.9,77.1,2284.3,77.4,2284.7,77.8z"/>
	<path class="st2" d="M2227.1,127.5c-0.3,0.3-0.6,0.6-0.8,1c-0.3,0-0.6-0.1-0.9-0.1C2225.9,128.1,2226.5,127.8,2227.1,127.5z"/>
	<path class="st6" d="M2210.2,277c0.3-0.6,0.7-1.1,1-1.7C2210.9,275.9,2210.5,276.5,2210.2,277z"/>
	<path class="st3" d="M2180.1,9c0,0.2-0.1,0.4-0.1,0.6c-0.3-0.4-0.6-0.8-1-1.1C2179.3,8.6,2179.7,8.8,2180.1,9z"/>
	<path class="st4" d="M2031.4,81.6c-0.3,0.2-0.7,0.4-1,0.6c0-0.1,0-0.3,0-0.5C2030.7,81.7,2031.1,81.7,2031.4,81.6z"/>
	<path class="st1" d="M2025.9,112.7c0.4,0.2,0.7,0.4,1.1,0.6C2026.7,113.1,2026.3,112.9,2025.9,112.7z"/>
	<path class="st8" d="M2017.2,97.1c0.2-0.1,0.5-0.1,0.7-0.2c-0.3,0.4-0.6,0.8-1,1.2C2017,97.8,2017.1,97.5,2017.2,97.1z"/>
	<path class="st11" d="M2082.8,130.5c0.5,0.2,1,0.4,1.4,0.6C2083.8,130.9,2083.3,130.7,2082.8,130.5z"/>
	<path class="st3" d="M2188.8,218.3c0.3,0,0.5,0.1,0.8,0.1c-0.1,0.4-0.3,0.7-0.4,1.1c-0.2-0.1-0.3-0.2-0.5-0.3
		C2188.7,218.9,2188.7,218.6,2188.8,218.3z"/>
	<path class="st10" d="M2206.1,23.1c-0.4-0.4-0.8-0.7-1.2-1.1C2205.3,22.3,2205.7,22.7,2206.1,23.1z"/>
	<path class="st10" d="M2220.8,40c-0.4-0.4-0.8-0.8-1.1-1.1C2220,39.2,2220.4,39.6,2220.8,40z"/>
	<path class="st1" d="M2132.7,152.8c0.5,0.3,1,0.7,1.5,1C2133.7,153.5,2133.2,153.2,2132.7,152.8z"/>
	<path class="st1" d="M2193.8,236.2c0.2,0.6,0.4,1.3,0.6,1.9C2194.2,237.4,2194,236.8,2193.8,236.2z"/>
	<path class="st1" d="M2059.4,52.5c-0.2,0.6-0.5,1.1-0.7,1.7C2058.9,53.6,2059.2,53.1,2059.4,52.5z"/>
	<path class="st1" d="M2015.3,106c-0.2,0.1-0.4,0.2-0.6,0.3c0.1-0.7,0.3-1.3,0.4-2C2015.2,104.9,2015.2,105.5,2015.3,106z"/>
	<path class="st1" d="M2202.3,262.7c0.1,0.5,0.2,0.9,0.3,1.4C2202.5,263.6,2202.4,263.1,2202.3,262.7z"/>
	<path class="st1" d="M2188.7,219.2c0.2,0.1,0.3,0.2,0.5,0.3c0,0.4,0,0.7,0,1.1C2189,220.1,2188.9,219.7,2188.7,219.2z"/>
	<path class="st1" d="M2176.2,184.5c0.2,0.3,0.4,0.7,0.6,1C2176.6,185.2,2176.4,184.9,2176.2,184.5z"/>
	<path class="st1" d="M2189.3,222c0.2,0.1,0.4,0.2,0.5,0.3c0,0.4-0.1,0.7-0.1,1.1C2189.5,222.9,2189.4,222.5,2189.3,222z"/>
	<path class="st1" d="M2120.8,144.4c0,0.2,0.1,0.3,0.1,0.5c-0.4-0.1-0.8-0.2-1.2-0.3c0.2-0.1,0.4-0.2,0.5-0.3
		C2120.4,144.4,2120.6,144.4,2120.8,144.4z"/>
	<path class="st10" d="M2218.6,38.2c-0.2-0.3-0.5-0.7-0.7-1C2218.1,37.5,2218.3,37.9,2218.6,38.2z"/>
	<path class="st3" d="M2190.9,227.8l-0.2,0c0,0-0.2,0-0.2,0c0-0.3,0-0.7,0.1-1c0.1,0.2,0.3,0.4,0.4,0.5
		C2191,227.5,2191,227.6,2190.9,227.8z"/>
	<path class="st1" d="M2196.5,245.4c0.2,0.4,0.3,0.8,0.5,1.2C2196.9,246.2,2196.7,245.8,2196.5,245.4z"/>
	<path class="st1" d="M2141.7,158.6c0.2,0.2,0.4,0.3,0.6,0.5C2142.1,158.9,2141.9,158.8,2141.7,158.6z"/>
	<path class="st1" d="M2147.4,160.9c0.1-0.1,0.3-0.1,0.5-0.1c0.1,0.1,0.1,0.3,0.1,0.4C2147.8,161.2,2147.6,161.1,2147.4,160.9z"/>
	<path class="st1" d="M2195.4,243.7c0.1,0.2,0.3,0.4,0.4,0.6C2195.7,244.1,2195.6,243.9,2195.4,243.7z"/>
	<path class="st6" d="M2050.2,60.9c0.1,0.1,0.3,0.1,0.4,0.2c-0.1,0.1-0.3,0.3-0.4,0.4C2050.2,61.3,2050.2,61.1,2050.2,60.9z"/>
	<path class="st1" d="M2121.4,145.5c0.2,0.2,0.3,0.4,0.5,0.6C2121.7,145.9,2121.6,145.7,2121.4,145.5z"/>
	<path class="st6" d="M2049.1,62.6c-0.2,0.2-0.4,0.4-0.6,0.6C2048.7,63,2048.9,62.8,2049.1,62.6z"/>
	<path class="st1" d="M2138.9,156.4c0.1,0.1,0.3,0.3,0.4,0.4C2139.2,156.7,2139,156.5,2138.9,156.4z"/>
	<path class="st1" d="M2194.8,239.7c0.1,0.2,0.3,0.4,0.4,0.6C2195.1,240.1,2195,239.9,2194.8,239.7z"/>
	<path class="st1" d="M2194.7,239.2c0.1,0.2,0.1,0.3,0.2,0.5c-0.1-0.1-0.2-0.2-0.3-0.3C2194.5,239.4,2194.7,239.3,2194.7,239.2z"/>
	<path class="st1" d="M2094.3,27c-0.2,0.2-0.4,0.3-0.6,0.5C2093.9,27.3,2094.1,27.2,2094.3,27z"/>
	<path class="st1" d="M2199.9,19.6c-0.2-0.1-0.4-0.3-0.6-0.4C2199.5,19.3,2199.7,19.4,2199.9,19.6z"/>
	<path class="st1" d="M2095.3,134.8c0-0.2,0.1-0.3,0.1-0.5c0.2,0.2,0.4,0.3,0.6,0.5C2095.8,134.8,2095.5,134.8,2095.3,134.8z"/>
	<path class="st6" d="M2039.1,71.1c-0.3,0.2-0.5,0.5-0.8,0.7C2038.6,71.6,2038.9,71.4,2039.1,71.1z"/>
	<path class="st1" d="M2194.8,16.2c-0.2-0.2-0.4-0.3-0.6-0.5C2194.4,15.9,2194.6,16.1,2194.8,16.2z"/>
	<path class="st14" d="M2059.7,51.7c0.2,0,0.3,0.1,0.4,0.1c-0.1,0.2-0.3,0.4-0.4,0.6C2059.7,52.2,2059.7,52,2059.7,51.7z"/>
	<path class="st1" d="M2223.7,130.3c0.2-0.1,0.3-0.1,0.5-0.1c-0.2,0.2-0.3,0.4-0.5,0.6C2223.6,130.7,2223.6,130.5,2223.7,130.3z"/>
	<path class="st1" d="M2179.6,191.2c0.2,0.2,0.4,0.4,0.6,0.6C2180,191.6,2179.8,191.4,2179.6,191.2z"/>
	<path class="st1" d="M2187,13.1c0,0-0.1-0.1-0.1-0.1c0.1-0.1,0.2-0.1,0.3-0.2C2187.2,12.8,2187.1,12.9,2187,13.1z"/>
	<path class="st1" d="M2077.3,128.2c0.2-0.1,0.3-0.1,0.5-0.1c0.1,0.1,0.1,0.3,0.2,0.5C2077.7,128.4,2077.5,128.3,2077.3,128.2z"/>
	<path class="st6" d="M2032.4,76.7c0.2,0.1,0.2,0.3,0.1,0.5c-0.1-0.1-0.1-0.2-0.2-0.3C2032.3,76.9,2032.3,76.8,2032.4,76.7z"/>
	<path class="st1" d="M2073.4,127.6c0.2-0.1,0.4-0.1,0.5,0C2073.7,127.6,2073.6,127.6,2073.4,127.6z"/>
	<path class="st6" d="M2029.3,82.3c0,0-0.1,0.2-0.1,0.2c-0.1-0.1-0.1-0.2-0.2-0.4C2029.1,82.2,2029.2,82.3,2029.3,82.3z"/>
	<path class="st6" d="M2030.4,81.7c0,0.2,0,0.3,0,0.5c-0.2,0-0.4,0-0.5,0C2030,82.1,2030.2,81.9,2030.4,81.7z"/>
	<path class="st1" d="M2181.7,198.6c0,0.2,0,0.4,0,0.6c0-0.1-0.1-0.3-0.1-0.4C2181.5,198.7,2181.6,198.6,2181.7,198.6z"/>
	<path class="st6" d="M2025.3,87.4c-0.1,0.2-0.3,0.4-0.4,0.7C2025,87.8,2025.1,87.6,2025.3,87.4z"/>
	<path class="st1" d="M2034.4,115.8c0.2,0.1,0.4,0.3,0.6,0.4C2034.8,116,2034.6,115.9,2034.4,115.8z"/>
	<path class="st6" d="M2024.1,89.7c-0.1,0.2-0.3,0.4-0.4,0.7C2023.8,90.1,2024,89.9,2024.1,89.7z"/>
	<path class="st10" d="M2227.5,50.8c-0.2-0.2-0.3-0.4-0.5-0.6C2227.2,50.4,2227.4,50.6,2227.5,50.8z"/>
	<path class="st9" d="M2296.5,108.3c0.1,2.2-1,2.6-2.9,1.9c-1.5-0.5-3-0.9-4.4-1.4c-0.7-0.2-1.5-0.4-2.2-0.6
		c-1.5-0.9-3.1-1.9-4.6-2.8c-0.4-0.2-0.8-0.4-1.1-0.6c-0.6-0.4-1.1-0.8-1.7-1.1c-0.2,0-0.3,0-0.5,0c-0.4-0.6-0.7-1.4-1.3-1.7
		c-4.1-1.8-8.2-3.4-12.3-5.1c-1-0.5-1.9-1-2.9-1.6c0.6-0.1,1.2-0.2,1.9-0.2c-0.3-0.5-0.5-0.9-0.8-1.4c2.9,0.8,5.7,1.5,8.6,2.4
		c4.2,1.3,8.3,2.8,12.4,4.2c0.4,0.4,0.8,0.7,1.2,1.1C2290.2,102.5,2293.3,105.4,2296.5,108.3z"/>
	<path class="st0" d="M2293.7,97.5c-2,2.5-4.2,1.3-6,0.6c-4.6-1.7-9-3.6-13.5-5.5c-3.6-1.5-7.2-3.1-10.8-4.7
		c-0.5-0.2-0.7-0.9-1.1-1.3c0.5-0.2,1.2-0.8,1.6-0.7c4.5,1.4,9.7,1.1,13.6,4.5c0.8,0.7,2.4,1.1,3.4,0.8c4-1.1,6.6,1,9.3,3.2
		C2291.4,95.3,2292.4,96.4,2293.7,97.5z"/>
	<path class="st0" d="M2209.5,88c-0.3,0.4-0.5,1-0.8,1c-3.9,0-7.8,0-11.6-0.2c-2-0.1-4.1-0.7-6-1.4c-0.8-0.3-1.3-1.4-1.9-2.1
		c0.9-0.5,1.9-1.5,2.8-1.4c5.8,0.5,11.6,1.2,17.5,1.9C2209.5,86.5,2209.5,87.2,2209.5,88z"/>
	<path class="st4" d="M2263.6,93.8c0.3,0.4,0.5,0.9,0.8,1.4c-0.7,0.1-1.3,0.2-1.9,0.2c-1.1-0.1-2.2-0.2-3.3-0.3
		c-0.6-0.1-1.1-0.3-1.7-0.4c-0.2,0-0.4,0-0.6,0c-0.4-0.1-0.8-0.2-1.1-0.3c-1.3-0.1-2.6-0.3-3.9-0.4c-1.5-0.5-3-1-4.6-1.6
		c-0.6-0.2-1.2-0.3-1.7-0.5c-1.9-0.2-3.7-0.4-5.6-0.6c-1.3-0.4-2.6-0.7-3.9-1.1c-0.5-0.4-1-0.8-1.7-1.4c0.5-0.4,0.8-0.7,1.1-0.9
		c0.5,0,1.1,0.1,1.6,0.1c0.8,0.1,1.6,0.3,2.3,0.4c0.6,0,1.1-0.1,1.7-0.1c0.8,0.1,1.5,0.3,2.3,0.4c1.9,0.4,3.8,0.9,5.6,1.3
		c1.7,0.4,3.4,0.8,5.1,1.2c0.4,0.1,0.8,0.3,1.2,0.4c0.5,0,1.1,0,1.6,0c1.1,0.3,2.2,0.6,3.3,0.8c0.8,0.4,1.6,0.7,2.4,1.1
		C2262.9,93.8,2263.3,93.8,2263.6,93.8z"/>
	<path class="st0" d="M2254,104c-2.1,0.4-4,1.2-6.3-0.2c-1.8-1.1-4.3-0.7-6.5-1.3c-1-0.3-2.1-1-2.7-1.9c-0.3-0.4,0.5-1.6,0.9-2.4
		c0.8,0.4,1.7,1,2.5,1.1c1.6,0.3,3.3,0.7,5,0.6C2249.7,99.8,2253.3,101.5,2254,104z"/>
	<path class="st5" d="M2209.5,88c0-0.8,0-1.5,0-2.3c5.3,0.2,10.7,0.4,16,0.6c0.5,0,1,0.4,1.5,0.6c-0.8,0.6-1.5,1.1-2.3,1.7
		c-2.7,0-5.4,0-8.1-0.1C2214.3,88.4,2211.9,88.1,2209.5,88z"/>
	<path class="st2" d="M2224.8,88.5c0.8-0.6,1.5-1.1,2.3-1.7c2.8,0.4,5.6,0.8,8.5,1.2c-0.3,0.3-0.7,0.6-1.1,0.9
		c0.7,0.5,1.2,0.9,1.7,1.4c-0.4,0.2-0.7,0.3-1.1,0.5c-1.5-0.4-3-0.8-4.5-1.2C2228.5,89.2,2226.7,88.9,2224.8,88.5z"/>
	<path class="st0" d="M2265.4,97c4.1,1.7,8.2,3.3,12.3,5.1c0.6,0.2,0.9,1.1,1.3,1.7c-2.4-1-4.8-2.1-7.2-3c-1.4-0.6-2.8-0.9-4.1-1.6
		C2266.8,98.6,2266.2,97.7,2265.4,97z"/>
	<path class="st0" d="M2203.8,175.4c0.2,1.4,0.5,2.8,0.7,4.2c0.3,2.4,0.7,4.7,1,7.1c-0.2,0.6-0.4,1.1-0.5,1.7
		C2202.9,186.8,2202.1,177.3,2203.8,175.4z"/>
	<path class="st2" d="M2204.9,188.4c0.2-0.6,0.4-1.1,0.5-1.7c1,1.3,1.9,2.5,2.9,3.8c0.6,0.6,1.2,1.2,1.8,1.8c0.1,0.3,0.1,0.7,0.2,1
		c0,1,0.1,2.1,0.1,3.1c-0.1,0.1-0.3,0.3-0.4,0.4c-0.3-0.2-0.8-0.4-1-0.7c-0.8-1.4-1.5-2.9-2.3-4.4c-0.4-0.6-0.7-1.2-1.1-1.7
		C2205.4,189.5,2205.1,189,2204.9,188.4z"/>
	<path class="st12" d="M2188.5,215c-0.3,0-0.6,0-0.9-0.1c-0.4-1.5-0.8-3-1.2-4.5c-0.4-1.5-0.8-3-1.2-4.5
		C2188.7,208.1,2190,211.7,2188.5,215z"/>
	<path class="st0" d="M2249.1,90.1c-1.9-0.4-3.8-0.9-5.6-1.3c0.2-2.2,1.2-2.6,2.8-1.2C2247.2,88.5,2248.1,89.3,2249.1,90.1z"/>
	<path class="st0" d="M2096.1,24.2c0.6-0.7,1-1.5,1.7-2c1-0.6,2.2-0.9,3.3-1.4C2100.8,24.2,2100.8,24.2,2096.1,24.2z"/>
	<path class="st0" d="M2247.4,92.5c1.5,0.5,3,1,4.6,1.6c-0.6,0.3-1.2,1-1.6,0.9C2249,94.6,2247.2,94.6,2247.4,92.5z"/>
	<path class="st0" d="M2086.8,32c0.7-1.5,1.7-2.6,3.5-2.3C2090.2,33,2090,33.2,2086.8,32z"/>
	<path class="st0" d="M2111.7,15.7c0.7-2.6,2.6-1,4-1.1C2115.2,17.6,2113.3,16.3,2111.7,15.7z"/>
	<path class="st0" d="M2282.4,105.5c1.5,0.9,3.1,1.9,4.6,2.8C2285.5,107.3,2282.8,108.2,2282.4,105.5z"/>
	<path class="st0" d="M2300,95.3c0.5,1.2,1,2.5,1.5,3.7c-0.8-0.2-2.2-0.4-2.2-0.6C2299.4,97.3,2299.7,96.3,2300,95.3z"/>
	<path class="st0" d="M2103.7,19.6c1-1.1,2-2.2,3.1-3.3c0.3,0,0.7,0,1,0C2107.6,18.8,2106.2,19.8,2103.7,19.6z"/>
	<path class="st0" d="M2240,91.4c1.9,0.2,3.7,0.4,5.6,0.6C2243.6,93,2241.8,92.6,2240,91.4z"/>
	<path class="st0" d="M2257,91.8c-0.5,0-1.1,0-1.6,0c-0.4-0.3-0.8-0.7-1.2-1c0.6-0.4,1.2-0.7,1.8-1.1
		C2256.3,90.4,2256.6,91.1,2257,91.8z"/>
	<path class="st0" d="M2215.1,247.1c0.1,0.7,0.1,1.5,0.2,2.2c-0.4,0.3-0.8,0.6-1.5,1.2C2213.6,248.9,2212.5,247.4,2215.1,247.1z"/>
	<path class="st0" d="M2230.4,89.6c1.5,0.4,3,0.8,4.5,1.2C2233.5,90.3,2231.4,92,2230.4,89.6z"/>
	<path class="st0" d="M2179.2,180.4c-0.4,0.4-0.6,1-0.9,1c-0.3,0-0.9-0.5-0.9-0.7c0.1-0.4,0.5-0.8,0.7-1.2
		C2178.5,179.8,2178.8,180,2179.2,180.4z"/>
	<path class="st9" d="M2262.6,93.7c-0.8-0.4-1.6-0.7-2.4-1.1C2261,93,2261.8,93.4,2262.6,93.7z"/>
	<path class="st0" d="M2298.2,91.8c0.5,0.4,1.1,0.9,1.6,1.3c0,0.4-0.1,0.7-0.1,1.1C2299.3,93.4,2298.8,92.6,2298.2,91.8z"/>
	<path class="st0" d="M2205.6,190.1c0.4,0.6,0.7,1.2,1.1,1.7C2205.5,191.8,2204.3,191.8,2205.6,190.1z"/>
	<path class="st0" d="M2266.3,104.1c-0.5,0-1.1,0-1.6,0c0-0.2,0-0.4,0-0.6c0.5,0,1.1-0.1,1.6-0.1
		C2266.2,103.6,2266.3,103.8,2266.3,104.1z"/>
	<path class="st2" d="M2239.5,88.6c-0.8-0.1-1.6-0.3-2.3-0.4c0.8,0,1.5-0.1,2.3-0.1C2239.4,88.2,2239.5,88.4,2239.5,88.6z"/>
	<path class="st0" d="M2239.5,88.6c0-0.2,0-0.4,0-0.6c0.6,0.2,1.1,0.3,1.7,0.5C2240.6,88.5,2240,88.5,2239.5,88.6z"/>
	<path class="st0" d="M2255.8,94.4c0.4,0.1,0.8,0.2,1.1,0.3c-0.2,0.3-0.5,0.6-0.7,0.8C2256.1,95.2,2256,94.8,2255.8,94.4z"/>
	<path class="st9" d="M2190.9,227.8c0.1-0.2,0.1-0.3,0.2-0.5c0.1,0.6,0.3,1.2,0.4,1.7C2191.3,228.6,2191.1,228.2,2190.9,227.8z"/>
	<path class="st0" d="M2212.9,229.5c-0.2,0.2-0.4,0.4-0.6,0.4c-0.2,0-0.5-0.4-0.4-0.5c0.1-0.2,0.4-0.4,0.6-0.6
		C2212.6,229,2212.7,229.2,2212.9,229.5z"/>
	<path class="st0" d="M2279.6,103.8c0.6,0.4,1.1,0.8,1.7,1.1C2280.7,104.5,2280.1,104.1,2279.6,103.8z"/>
	<path class="st5" d="M2211.1,211.6c0,0.4,0,0.8,0,1.2c-0.3-0.2-0.5-0.4-0.8-0.6C2210.6,211.9,2210.8,211.7,2211.1,211.6z"/>
	<path class="st0" d="M2285.8,101.5c-0.4-0.4-0.8-0.7-1.2-1.1C2285,100.8,2285.4,101.1,2285.8,101.5z"/>
	<path class="st0" d="M2102.2,19.7c0.4,0,0.7,0,1.1,0.1c-0.5,0.3-0.9,0.6-1.4,0.9C2102,20.4,2102.1,20,2102.2,19.7z"/>
	<path class="st2" d="M2163.7,67.6c0.4-0.3,0.8-0.6,1.3-1C2164.6,66.9,2164.1,67.3,2163.7,67.6z"/>
	<path class="st9" d="M2254.1,90.8c0.4,0.3,0.8,0.7,1.2,1c-0.4-0.1-0.8-0.3-1.2-0.4C2254.1,91.2,2254.1,91,2254.1,90.8z"/>
	<path class="st9" d="M2257.6,94.7c0.6,0.1,1.1,0.3,1.7,0.4C2258.7,95,2258.1,94.9,2257.6,94.7z"/>
	<path class="st11" d="M2210.4,198c0.1,0.2,0.2,0.4,0.3,0.6c-0.1-0.1-0.3-0.1-0.5-0.1C2210.2,198.3,2210.3,198.1,2210.4,198z"/>
	<path class="st2" d="M2210.2,198.5c0.2,0,0.3,0,0.5,0.1c-0.2,0.2-0.3,0.4-0.5,0.6C2210.1,199,2210.2,198.7,2210.2,198.5z"/>
	<path class="st15" d="M2083.9,126.2c-0.1,0.2-0.1,0.3-0.2,0.5c-0.2-0.1-0.4-0.1-0.4-0.2c0-0.1,0.1-0.3,0.2-0.5
		C2083.5,126,2083.7,126.1,2083.9,126.2z"/>
	<path class="st2" d="M2145.1,8.4c2.8-0.6,5.6-1.1,8.5-1.7c-0.8,0.6-1.5,1.6-2.3,1.7C2149.2,8.6,2147.1,8.4,2145.1,8.4z"/>
	<path class="st2" d="M2138.3,9.9c0.8-0.3,1.5-0.6,2.3-0.9C2139.8,9.3,2139.1,9.6,2138.3,9.9z"/>
	<path class="st2" d="M2141.7,8.9c0.4-0.1,0.8-0.3,1.1-0.4C2142.5,8.6,2142.1,8.8,2141.7,8.9z"/>
	<path class="st11" d="M2210.4,196.5c0-1-0.1-2.1-0.1-3.1C2211.6,194.4,2211.7,195.4,2210.4,196.5z"/>
	<path class="st16" d="M2166,55.8c-0.2-0.2-0.4-0.4-0.6-0.6c-1.6-1.1-3.1-2.8-4.8-3c-2.7-0.4-5.9-1.7-8.3,1.2
		c-5.5,2.9-5.3,7.7-1.9,11.9c2.8,3.6,7.8,4.3,13.3,2.3c0.4-0.3,0.8-0.6,1.3-1c0.2,0,0.3-0.1,0.5-0.1
		C2169.7,64.5,2170,59.2,2166,55.8z M2164.4,61.5c-0.5,2.6-2.2,4-4.4,3.7c-2.2-0.2-4.3-1.5-6.3-2.5c-0.2-0.1,0-0.9,0-1.3
		c0.2-1.5,0.4-3,0.6-4.5c2.3-2.2,4.7-1.5,7.2-0.6c0,0,0,0,0,0l0,0C2164.1,57.2,2164.9,58.8,2164.4,61.5z"/>
	<path d="M2154.2,56.9c2.3-2.2,4.7-1.5,7.2-0.6c0,0,0,0,0,0c0.1,0.4,0.1,0.8,0.3,1c2.1,1.6,1.2,3.8,0.4,5.3c-0.4,0.8-2.7,1.1-4,0.9
		c-1.6-0.3-3.1-1.4-4.7-2.1C2153.8,59.9,2154,58.4,2154.2,56.9z"/>
	<path d="M2153.6,61.4c1.6,0.7,3.1,1.8,4.7,2.1c1.3,0.2,3.6-0.1,4-0.9c0.8-1.5,1.7-3.7-0.4-5.3c-0.2-0.2-0.2-0.7-0.3-1
		c2.6,0.8,3.4,2.4,2.9,5.1c-0.5,2.6-2.2,4-4.4,3.7c-2.2-0.2-4.3-1.5-6.3-2.5C2153.4,62.7,2153.6,61.9,2153.6,61.4z"/>
</g>
<text transform="matrix(1 0 0 1 -9.2288 360.855)"><tspan x="0" y="0" class="st17 st18 st19">K</tspan><tspan x="290.7" y="0" class="st17 st18 st20">o</tspan><tspan x="480.1" y="0" class="st17 st18 st19">rpe</tspan><tspan x="1008.2" y="0" class="st17 st18 st20">n</tspan><tspan x="1212.6" y="0" class="st17 st18">s</tspan><tspan x="1369.4" y="0" class="st17 st18 st21"> </tspan><tspan x="1429.9" y="0" class="st17 st18 st20">Ö</tspan><tspan x="1753.6" y="0" class="st17 st18 st19">g</tspan><tspan x="1947.1" y="0" class="st17 st18">a</tspan></text>
</svg>
